<svg xmlns="http://www.w3.org/2000/svg" viewBox="0 0 100 100" fill="none">
  <defs>
    <linearGradient id="g" x1="12" y1="88" x2="88" y2="12" gradientUnits="userSpaceOnUse">
      <stop stop-color="#4338CA"/>
      <stop offset="0.45" stop-color="#7C3AED"/>
      <stop offset="1" stop-color="#C4B5FD"/>
    </linearGradient>
  </defs>
  <path
    fill-rule="evenodd"
    clip-rule="evenodd"
    d="M50 6 10 28v44l40 22 40-22V28L50 6Zm8 24c9.5 0 15 5.2 15 12.8 0 5.5-3.2 9.8-8.5 11.8 6.2 2 10 7.2 10 14.2 0 9-7.5 14.2-18 14.2H36V30h22Zm-2 0H40v16h7.5c5.2 0 8-2.8 8-6.8s-2.8-6.8-8-6.8Zm0 23H40v16h8.5c5.8 0 9.5-2.8 9.5-7.5s-3.7-7.5-9.5-7.5Z"
    fill="url(#g)"
  />
  <path d="M54 30 43 52h7.5L46 70l20-30h-7.5L54 30Z" fill="#FFFFFF"/>
</svg>
